<?xml version="1.0" encoding="UTF-8"?>
<svg width="169px" height="100px" viewBox="0 0 169 100" version="1.1" xmlns="http://www.w3.org/2000/svg" xmlns:xlink="http://www.w3.org/1999/xlink">
    <title>A7303071-49FE-4B67-B76D-2A5F5F78B91D</title>
    <defs>
        <polygon id="path-1" points="0 100 168.077419 100 168.077419 0 0 0"></polygon>
    </defs>
    <g id="Assets" stroke="none" stroke-width="1" fill="none" fill-rule="evenodd">
        <g id="Logos" transform="translate(-40.000000, -40.000000)">
            <g id="logo" transform="translate(40.000000, 40.000000)">
                <polygon id="Fill-1" fill="#00234A" points="0 100 168.077419 100 168.077419 0 0 0"></polygon>
                <path d="M33.9432656,78.8952708 L33.2504315,81.2314741 L34.6452114,81.2314741 L33.9432656,78.8952708 Z M35.4291634,83.8709677 L34.9550125,82.2774273 L32.9406304,82.2774273 L32.4482559,83.8709677 L31.2451613,83.8709677 L33.4235557,77.4193548 L34.4538637,77.4193548 L36.6322581,83.8709677 L35.4291634,83.8709677 Z" id="Fill-2" fill="#FFFFFF"></path>
                <g id="Group-27">
                    <path d="M45.6963972,83.5272031 L43.0488203,79.5508551 C43.036379,79.538443 43.0208273,79.5118949 43.0021654,79.4715556 C42.9831579,79.4312164 42.9551649,79.3770859 42.9178411,79.3088195 C42.8805172,79.2340022 42.8556346,79.1909047 42.8431933,79.1784926 C42.8241857,79.1409116 42.8086341,79.1085023 42.7961928,79.0805751 C42.7837515,79.0523031 42.7713102,79.0136878 42.7588689,78.9643842 L42.7588689,83.4713488 L41.6388067,83.4713488 L41.6388067,77.3253 L42.9921432,77.3253 L45.5778593,81.3664667 C45.58408,81.3795683 45.5934109,81.3961178 45.6058522,81.4181837 C45.6182935,81.4395601 45.6307348,81.4657633 45.6431761,81.4967935 C45.6556174,81.5281685 45.6666763,81.5526479 45.6760073,81.5716108 C45.6853383,81.5902289 45.6929413,81.6060888 45.699162,81.6181561 L45.7551478,81.7764102 L45.8111336,81.8881189 L45.8111336,77.3253 L46.9315415,77.3253 L46.9315415,83.5272031 L45.6963972,83.5272031 Z" id="Fill-3" fill="#FFFFFF"></path>
                    <mask id="mask-2" fill="white">
                        <use xlink:href="#path-1"></use>
                    </mask>
                    <g id="Clip-6"></g>
                    <polygon id="Fill-5" fill="#FFFFFF" mask="url(#mask-2)" points="52.0557658 83.4712453 53.2318139 83.4712453 53.2318139 77.3251965 52.0557658 77.3251965"></polygon>
                    <path d="M63.6396493,83.4713143 L63.6396493,78.9643497 C63.6272081,79.0446835 63.6178771,79.1115708 63.6116564,79.1643222 C63.6054358,79.2170735 63.5943769,79.271204 63.5788252,79.3270583 C63.5632736,79.3832575 63.5432293,79.4498 63.5183467,79.5277203 C63.4934641,79.604951 63.4561402,79.7090746 63.406375,79.8394015 L61.9967071,83.4713143 L60.9419616,83.4713143 L59.6539419,79.9045649 C59.622493,79.8176803 59.5962281,79.7418287 59.5744558,79.6763205 C59.5526835,79.6115019 59.5357496,79.5446145 59.5229627,79.4760033 C59.5105214,79.4080816 59.4966977,79.3318853 59.4811461,79.2481037 C59.4655945,79.1643222 59.4452046,79.0570956 59.4206676,78.9267687 L59.4206676,83.4713143 L58.3562456,83.4713143 L58.3562456,77.3252655 L59.7659135,77.3252655 L61.4085102,81.7112122 C61.4396135,81.7980968 61.4648416,81.8694663 61.4835036,81.9253206 C61.5018199,81.9815198 61.5173716,82.0684044 61.5301585,82.1859743 C61.5488204,82.0435802 61.564372,81.9473866 61.5768133,81.8977382 C61.5892546,81.8480899 61.6106813,81.7856847 61.6421301,81.7112122 L63.3503892,77.3252655 L64.7597116,77.3252655 L64.7597116,83.4713143 L63.6396493,83.4713143 Z" id="Fill-7" fill="#FFFFFF" mask="url(#mask-2)"></path>
                    <path d="M71.8537042,78.731244 L71.1445503,80.9567991 L72.5725346,80.9567991 L71.8537042,78.731244 Z M73.3753438,83.4712798 L72.8897877,81.9532133 L70.8269516,81.9532133 L70.3230791,83.4712798 L69.0906996,83.4712798 L71.3214931,77.325231 L72.3765842,77.325231 L74.6073777,83.4712798 L73.3753438,83.4712798 Z" id="Fill-8" fill="#FFFFFF" mask="url(#mask-2)"></path>
                    <polygon id="Fill-9" fill="#FFFFFF" mask="url(#mask-2)" points="78.8824836 83.4713143 78.8824836 77.3252655 80.0585317 77.3252655 80.0585317 82.4749 82.5789309 82.4749 82.5789309 83.4713143"></polygon>
                    <polygon id="Fill-10" fill="#FFFFFF" mask="url(#mask-2)" points="97.0098323 83.4713143 97.0098323 80.8358157 93.845596 80.8358157 93.845596 83.4713143 92.6695479 83.4713143 92.6695479 77.3252655 93.845596 77.3252655 93.845596 79.7838919 97.0098323 79.7838919 97.0098323 77.3252655 98.1855348 77.3252655 98.1855348 83.4713143"></polygon>
                    <polygon id="Fill-11" fill="#FFFFFF" mask="url(#mask-2)" points="103.282457 83.4713143 103.282457 77.3252655 107.034545 77.3252655 107.034545 78.321335 104.45816 78.321335 104.45816 79.8394015 106.567996 79.8394015 106.567996 80.8358157 104.45816 80.8358157 104.45816 82.4749 107.156539 82.4749 107.156539 83.4713143"></polygon>
                    <path d="M113.671458,78.731244 L112.962304,80.9567991 L114.389943,80.9567991 L113.671458,78.731244 Z M115.192752,83.4712798 L114.707887,81.9532133 L112.645051,81.9532133 L112.140833,83.4712798 L110.908799,83.4712798 L113.139247,77.325231 L114.194684,77.325231 L116.425132,83.4712798 L115.192752,83.4712798 Z" id="Fill-12" fill="#FFFFFF" mask="url(#mask-2)"></path>
                    <polygon id="Fill-13" fill="#FFFFFF" mask="url(#mask-2)" points="120.70041 83.4713143 120.70041 77.3252655 121.876113 77.3252655 121.876113 82.4749 124.396512 82.4749 124.396512 83.4713143"></polygon>
                    <polygon id="Fill-14" fill="#FFFFFF" mask="url(#mask-2)" points="130.063108 78.3214729 130.063108 83.4714522 128.88706 83.4714522 128.88706 78.3214729 127.03849 78.3214729 127.03849 77.3250586 131.910986 77.3250586 131.910986 78.3214729"></polygon>
                    <polygon id="Fill-15" fill="#FFFFFF" mask="url(#mask-2)" points="140.591486 83.4713143 140.591486 80.8358157 137.426904 80.8358157 137.426904 83.4713143 136.25051 83.4713143 136.25051 77.3252655 137.426904 77.3252655 137.426904 79.7838919 140.591486 79.7838919 140.591486 77.3252655 141.767534 77.3252655 141.767534 83.4713143"></polygon>
                    <polygon id="Fill-16" fill="#FFFFFF" mask="url(#mask-2)" points="86.1784398 48.4540063 91.8174573 48.4540063 91.8174573 33.1830092 86.1784398 33.1830092"></polygon>
                    <path d="M67.8225168,40.4642118 L74.7578483,40.4642118 C75.7030412,40.3700869 76.4336218,39.7325886 76.4336218,38.9613157 C76.4336218,38.1893532 75.7448578,37.5246173 74.8065767,37.4256654 L67.8225168,37.4256654 L67.8225168,40.4642118 Z M71.6689509,44.5050338 L67.8225168,44.5050338 L67.840142,48.4762102 L62.2011245,48.4762102 L62.2011245,33.2048683 L67.840142,33.2048683 C75.4925759,33.2048683 75.4749508,33.2176252 75.4749508,33.2176252 L75.6321949,33.2176252 C79.448217,33.2176252 82.5405703,35.7517584 82.5405703,38.8778789 C82.5405703,41.3085781 80.5914338,43.3603641 77.9307244,44.1540477 L82.741359,48.465522 L74.8390623,48.4669011 L71.6689509,44.5050338 Z" id="Fill-17" fill="#FFFFFF" mask="url(#mask-2)"></path>
                    <polygon id="Fill-18" fill="#FFFFFF" mask="url(#mask-2)" points="137.977949 33.2238312 143.616621 33.2238312 143.616621 48.4951731 137.977949 48.4951731 128.493535 40.2418287 128.493535 48.4951731 122.854517 48.4951731 122.854517 33.2238312 128.493535 33.2238312 137.977949 41.373052"></polygon>
                    <path d="M39.7106477,58.4976555 L44.6180479,58.4976555 C45.2871131,58.4311129 45.8044637,57.9797959 45.8044637,57.4343539 C45.8044637,56.8878775 45.316834,56.4175976 44.652607,56.3476072 L39.7106477,56.3476072 L39.7106477,58.4976555 Z M45.1271042,61.3569163 L39.7106477,61.3569163 L39.723089,64.1672183 L35.7325432,64.1672183 L35.7325432,53.3600883 L39.7106477,53.3693973 L45.2370024,53.3693973 C47.9374548,53.3693973 50.1264318,55.162943 50.1264318,57.3757413 C50.1264318,59.5875052 47.8275567,61.3569163 45.1271042,61.3569163 L45.1271042,61.3569163 Z" id="Fill-19" fill="#FFFFFF" mask="url(#mask-2)"></path>
                    <polygon id="Fill-20" fill="#FFFFFF" mask="url(#mask-2)" points="62.8365982 53.4380775 66.8274896 53.4380775 66.8274896 64.2452076 62.8365982 64.2452076 62.8365982 60.1064681 56.1884534 60.1064681 56.1884534 64.2452076 52.197562 64.2452076 52.197562 53.4380775 56.1884534 53.4380775 56.1884534 57.1765274 62.8365982 57.1765274"></polygon>
                    <path d="M70.0343028,64.2265894 L70.0343028,58.4815198 C70.0343028,54.4782789 73.400019,53.0891601 77.0784956,53.0891601 C80.7569722,53.0891601 84.107828,54.4782789 84.107828,58.4815198 L84.107828,64.2265894 L80.1210837,64.2265894 L80.1148631,62.3258171 L74.0272677,62.3258171 L74.0207015,64.2265894 L70.0343028,64.2265894 Z M77.1047606,56.3169908 C75.3906264,56.3404358 74.0286501,57.2072128 74.0286501,58.6487381 L74.0289957,59.3717418 L80.1131351,59.3717418 L80.1138263,58.6487381 C80.1138263,57.2079024 78.750122,56.3407806 77.1047606,56.3169908 L77.1047606,56.3169908 Z" id="Fill-21" fill="#FFFFFF" mask="url(#mask-2)"></path>
                    <path d="M91.2404231,58.5228934 L96.1543895,58.5228934 C96.8231092,58.4556613 97.3408054,58.0036547 97.3408054,57.4575231 C97.3408054,56.9110468 96.8531757,56.4393877 96.1882575,56.3704317 L91.2404231,56.3704317 L91.2404231,58.5228934 Z M93.965067,61.3859468 L91.2552836,61.3852572 L91.25321,64.1993518 L87.257826,64.1993518 L87.257826,53.3794649 L91.25321,53.3794649 C96.6745048,53.3794649 96.6620635,53.388774 96.6620635,53.388774 L96.773344,53.388774 C99.4772524,53.388774 101.668303,55.1836988 101.668303,57.3989105 C101.668303,59.1172942 100.282481,60.5691629 98.39797,61.133223 L101.809995,64.1910771 L96.2117577,64.1924562 L93.965067,61.3859468 Z" id="Fill-22" fill="#FFFFFF" mask="url(#mask-2)"></path>
                    <path d="M104.615197,53.4008413 L108.606088,53.4008413 C112.556545,57.3030616 112.570369,57.2875465 112.570369,57.2875465 L116.519098,53.3856709 L120.509989,53.3856709 L120.509989,64.1924562 L116.519098,64.1924562 L116.519098,58.4063577 L112.570369,62.1172252 L108.606088,58.4684181 L108.606088,64.2079713 L104.615197,64.2079713 L104.615197,53.4008413 Z" id="Fill-23" fill="#FFFFFF" mask="url(#mask-2)"></path>
                    <path d="M95.2707465,40.8780168 C95.2707465,36.4089781 100.631217,32.78534 107.243421,32.78534 C113.856315,32.78534 119.217131,36.4089781 119.217131,40.8780168 C119.217131,45.3474004 113.856315,48.9703489 107.243421,48.9703489 C100.631217,48.9703489 95.2707465,45.3474004 95.2707465,40.8780168 M101.818324,40.8780168 C101.818324,39.2189353 104.247487,37.8749828 107.243421,37.8749828 C110.239354,37.8749828 112.669208,39.2189353 112.669208,40.8780168 C112.669208,42.5367536 110.239354,43.8817404 107.243421,43.8817404 C104.247487,43.8817404 101.818324,42.5367536 101.818324,40.8780168" id="Fill-24" fill="#FFFFFF" mask="url(#mask-2)"></path>
                    <path d="M123.742895,64.2265894 L123.742895,58.4815198 C123.742895,54.4782789 127.108611,53.0891601 130.786742,53.0891601 C134.465564,53.0891601 137.81642,54.4782789 137.81642,58.4815198 L137.81642,64.2265894 L133.830021,64.2265894 L133.824146,62.3258171 L127.735169,62.3258171 L127.729639,64.2265894 L123.742895,64.2265894 Z M130.813698,56.3169908 C129.099218,56.3404358 127.737933,57.2072128 127.737933,58.6487381 L127.737933,59.3717418 L133.822073,59.3717418 L133.822073,58.6487381 C133.822073,57.2079024 132.458368,56.3407806 130.813698,56.3169908 L130.813698,56.3169908 Z" id="Fill-25" fill="#FFFFFF" mask="url(#mask-2)"></path>
                    <path d="M24.1003114,35.6392911 C25.9786015,30.9406289 31.560942,27.5055854 35.355883,25.8696042 C43.5512413,22.3359537 52.1720228,20.2607227 60.7876204,18.8102331 C70.0515478,17.2511378 75.0491474,17.0601296 84.2166548,16.746035 C95.5389255,16.3585023 101.966237,16.5202041 113.252221,17.6783202 C124.933561,18.8771204 134.464286,21.0533719 143.676029,23.7929941 L144.692759,26.8132671 C134.279394,24.4825541 126.135183,23.2054889 115.988615,22.405944 C105.085201,21.5474417 99.4185364,21.5757137 89.0227966,22.0732313 C71.9903165,22.8886361 59.5189538,25.8027169 50.3635421,29.188112 C55.2222139,31.1785271 58.4918557,34.6601158 58.4918557,38.6274997 C58.4918557,44.7704455 50.649692,49.7504482 40.9765841,49.7504482 C31.3034763,49.7504482 23.4613126,44.7704455 23.4613126,38.6274997 C23.4613126,37.59247 23.6838736,36.5898497 24.1003114,35.6392911 M32.6156875,38.2647911 C32.6156875,36.0519928 36.3587897,34.2584471 40.9765841,34.2584471 C45.594033,34.2584471 49.3371352,36.0519928 49.3371352,38.2647911 C49.3371352,40.4775893 45.594033,42.2714798 40.9765841,42.2714798 C36.3587897,42.2714798 32.6156875,40.4775893 32.6156875,38.2647911" id="Fill-26" fill="#FFFFFF" mask="url(#mask-2)"></path>
                </g>
            </g>
        </g>
    </g>
</svg>