<?xml version="1.0" encoding="UTF-8"?>
<svg id="Layer_2" data-name="Layer 2" xmlns="http://www.w3.org/2000/svg" viewBox="0 0 680.31 209.73">
  <defs>
    <style>
      .cls-1 {
        fill: #005baa;
      }

      .cls-2 {
        fill: #009edb;
      }
    </style>
  </defs>
  <g id="Layer_1-2" data-name="Layer 1">
    <g>
      <rect class="cls-2" width="23.04" height="147.4"/>
      <path class="cls-2" d="M220.45,147.4c-2.95,0-5.9-1.08-8.15-3.23L101.37,37.95v109.45h-23.04V11.33c0-4.46,2.81-8.48,7.11-10.19,4.3-1.71,9.26-.76,12.55,2.39l122.46,117.25L342.91,3.53c3.29-3.15,8.25-4.1,12.55-2.39,4.3,1.71,7.11,5.73,7.11,10.19v136.07h-23.04V37.95l-110.94,106.22c-2.25,2.15-5.2,3.23-8.15,3.23Z"/>
      <path class="cls-2" d="M541.56,147.4c-3.06,0-5.98-1.16-8.15-3.23L402.81,15.6l16.29-15.6,122.46,120.78L664.02,0l16.29,15.6-130.61,128.57c-2.16,2.07-5.09,3.23-8.15,3.23Z"/>
      <path class="cls-1" d="M.29,209.03c-.19-.19-.29-.43-.29-.7v-27.02c0-.3.1-.55.29-.73.19-.18.43-.27.7-.27h3.98c.3,0,.55.09.73.27.18.18.27.42.27.73v27.02c0,.28-.09.51-.27.7-.18.19-.42.29-.73.29H.99c-.28,0-.51-.1-.7-.29Z"/>
      <path class="cls-1" d="M13.88,209.03c-.19-.19-.29-.43-.29-.7v-19.56c0-.3.1-.55.29-.73.19-.18.43-.27.7-.27h3.44c.3,0,.55.09.73.27.18.18.27.42.27.73v1.7c1.68-2.07,3.99-3.11,6.92-3.11,2.54,0,4.56.83,6.05,2.49,1.49,1.66,2.24,3.94,2.24,6.84v11.65c0,.28-.09.51-.27.7-.18.19-.42.29-.73.29h-3.73c-.28,0-.51-.1-.7-.29-.19-.19-.29-.43-.29-.7v-11.4c0-1.6-.39-2.85-1.18-3.75-.79-.9-1.91-1.35-3.38-1.35s-2.54.46-3.4,1.37c-.86.91-1.28,2.15-1.28,3.73v11.4c0,.28-.09.51-.27.7-.18.19-.42.29-.73.29h-3.69c-.28,0-.51-.1-.7-.29Z"/>
      <path class="cls-1" d="M47.16,209.05c-.22-.18-.4-.44-.54-.77l-7.79-19.23c-.03-.08-.04-.21-.04-.37,0-.25.09-.46.27-.64s.38-.27.6-.27h3.44c.55,0,.93.26,1.12.79l5.47,14.46,5.47-14.46c.06-.19.17-.37.35-.54.18-.17.42-.25.73-.25h3.44c.25,0,.46.09.62.27.17.18.25.39.25.64,0,.17-.01.29-.04.37l-7.75,19.23c-.3.69-.8,1.04-1.49,1.04h-3.15c-.41,0-.73-.09-.95-.27Z"/>
      <path class="cls-1" d="M67.16,207.08c-1.81-1.77-2.77-4.28-2.88-7.54l-.04-1.04c0-3.45.9-6.17,2.71-8.16s4.32-2.98,7.52-2.98,5.82.99,7.6,2.98c1.78,1.99,2.67,4.64,2.67,7.96v.87c0,.28-.1.51-.29.7s-.44.29-.75.29h-13.76v.33c.05,1.55.48,2.83,1.26,3.83.79,1.01,1.87,1.51,3.25,1.51,1.58,0,2.86-.64,3.85-1.91.25-.3.44-.49.58-.56.14-.07.37-.1.7-.1h3.65c.25,0,.46.07.64.21.18.14.27.33.27.58,0,.66-.39,1.44-1.18,2.34-.79.9-1.91,1.68-3.38,2.34-1.46.66-3.16.99-5.1.99-3.09,0-5.55-.88-7.36-2.65ZM79.03,196.64v-.08c0-1.63-.41-2.94-1.22-3.92-.82-.98-1.93-1.47-3.34-1.47s-2.51.49-3.32,1.47c-.8.98-1.2,2.29-1.2,3.92v.08h9.08Z"/>
      <path class="cls-1" d="M91.09,209.03c-.19-.19-.29-.43-.29-.7v-19.52c0-.3.1-.55.29-.75.19-.19.43-.29.7-.29h3.4c.3,0,.55.1.75.29.19.19.29.44.29.75v1.7c1.38-1.82,3.37-2.74,5.97-2.74h1.74c.3,0,.55.09.73.27.18.18.27.42.27.73v3.03c0,.28-.09.51-.27.7-.18.19-.42.29-.73.29h-3.27c-1.3,0-2.32.37-3.07,1.12-.75.75-1.12,1.77-1.12,3.07v11.36c0,.28-.1.51-.29.7s-.43.29-.7.29h-3.69c-.28,0-.51-.1-.7-.29Z"/>
      <path class="cls-1" d="M112.76,208.78c-1.41-.64-2.45-1.37-3.13-2.22-.68-.84-1.02-1.57-1.02-2.18,0-.28.09-.5.27-.66.18-.17.39-.25.64-.25h3.4c.22,0,.41.11.58.33.14.11.45.37.93.79.48.41,1.04.74,1.66.97.62.24,1.31.35,2.05.35,1.1,0,2-.21,2.69-.64.69-.43,1.04-1.04,1.04-1.84,0-.55-.16-1-.48-1.35-.32-.35-.88-.66-1.7-.95s-2.04-.61-3.67-.97c-2.35-.5-4.08-1.26-5.2-2.28-1.12-1.02-1.68-2.38-1.68-4.06,0-1.1.33-2.15.99-3.13.66-.98,1.65-1.78,2.96-2.4,1.31-.62,2.88-.93,4.7-.93s3.49.3,4.85.89c1.35.59,2.38,1.31,3.09,2.13.7.83,1.06,1.56,1.06,2.2,0,.25-.09.46-.27.64s-.39.27-.64.27h-3.11c-.3,0-.54-.11-.7-.33-.19-.14-.5-.39-.93-.77-.43-.37-.91-.67-1.43-.89-.53-.22-1.16-.33-1.91-.33-1.02,0-1.81.22-2.36.66-.55.44-.83,1.02-.83,1.74,0,.5.13.91.39,1.24.26.33.79.64,1.6.93.8.29,2,.59,3.61.89,4.97.97,7.46,3.14,7.46,6.51,0,1.96-.85,3.55-2.55,4.77-1.7,1.22-4.07,1.82-7.11,1.82-2.1,0-3.85-.32-5.26-.95Z"/>
      <path class="cls-1" d="M133.69,183.95c-.19-.19-.29-.43-.29-.7v-3.03c0-.3.1-.55.29-.75s.43-.29.7-.29h3.81c.3,0,.55.1.75.29.19.19.29.44.29.75v3.03c0,.28-.1.51-.31.7-.21.19-.45.29-.73.29h-3.81c-.28,0-.51-.1-.7-.29ZM133.86,209.03c-.19-.19-.29-.43-.29-.7v-19.56c0-.3.1-.55.29-.73.19-.18.43-.27.7-.27h3.52c.28,0,.51.1.7.29.19.19.29.43.29.7v19.56c0,.28-.1.51-.29.7s-.43.29-.7.29h-3.52c-.28,0-.51-.1-.7-.29Z"/>
      <path class="cls-1" d="M148.24,207.24c-1.77-1.66-2.72-3.95-2.86-6.88l-.04-1.82.04-1.82c.14-2.9,1.1-5.19,2.9-6.86,1.8-1.67,4.3-2.51,7.5-2.51s5.66.84,7.46,2.51c1.8,1.67,2.76,3.96,2.9,6.86.03.33.04.94.04,1.82s-.01,1.49-.04,1.82c-.14,2.93-1.09,5.22-2.86,6.88-1.77,1.66-4.27,2.49-7.5,2.49s-5.77-.83-7.54-2.49ZM159.16,204.18c.79-.91,1.21-2.25,1.26-4.02.03-.28.04-.81.04-1.62s-.01-1.34-.04-1.62c-.06-1.77-.48-3.11-1.28-4.04-.8-.93-1.92-1.39-3.36-1.39s-2.6.46-3.4,1.39c-.8.93-1.23,2.27-1.28,4.04l-.04,1.62.04,1.62c.05,1.77.48,3.11,1.28,4.02s1.93,1.37,3.4,1.37,2.59-.46,3.38-1.37Z"/>
      <path class="cls-1" d="M172.73,209.03c-.19-.19-.29-.43-.29-.7v-19.56c0-.3.1-.55.29-.73.19-.18.43-.27.7-.27h3.44c.3,0,.55.09.73.27.18.18.27.42.27.73v1.7c1.68-2.07,3.99-3.11,6.92-3.11,2.54,0,4.56.83,6.05,2.49,1.49,1.66,2.24,3.94,2.24,6.84v11.65c0,.28-.09.51-.27.7-.18.19-.42.29-.73.29h-3.73c-.28,0-.51-.1-.7-.29-.19-.19-.29-.43-.29-.7v-11.4c0-1.6-.39-2.85-1.18-3.75-.79-.9-1.91-1.35-3.38-1.35s-2.54.46-3.4,1.37c-.86.91-1.28,2.15-1.28,3.73v11.4c0,.28-.09.51-.27.7-.18.19-.42.29-.73.29h-3.69c-.28,0-.51-.1-.7-.29Z"/>
      <path class="cls-1" d="M201.97,207.08c-1.81-1.77-2.77-4.28-2.88-7.54l-.04-1.04c0-3.45.9-6.17,2.71-8.16,1.81-1.99,4.32-2.98,7.52-2.98s5.82.99,7.61,2.98c1.78,1.99,2.67,4.64,2.67,7.96v.87c0,.28-.1.51-.29.7s-.44.29-.75.29h-13.76v.33c.06,1.55.48,2.83,1.26,3.83.79,1.01,1.87,1.51,3.25,1.51,1.58,0,2.86-.64,3.85-1.91.25-.3.44-.49.58-.56.14-.07.37-.1.7-.1h3.65c.25,0,.46.07.64.21.18.14.27.33.27.58,0,.66-.39,1.44-1.18,2.34-.79.9-1.91,1.68-3.38,2.34-1.47.66-3.16.99-5.1.99-3.09,0-5.55-.88-7.36-2.65ZM213.84,196.64v-.08c0-1.63-.41-2.94-1.22-3.92-.81-.98-1.93-1.47-3.34-1.47s-2.51.49-3.32,1.47c-.8.98-1.2,2.29-1.2,3.92v.08h9.08Z"/>
      <path class="cls-1" d="M228.55,208.78c-1.41-.64-2.45-1.37-3.13-2.22-.68-.84-1.02-1.57-1.02-2.18,0-.28.09-.5.27-.66.18-.17.39-.25.64-.25h3.4c.22,0,.41.11.58.33.14.11.45.37.93.79.48.41,1.04.74,1.66.97.62.24,1.31.35,2.05.35,1.1,0,2-.21,2.69-.64.69-.43,1.04-1.04,1.04-1.84,0-.55-.16-1-.48-1.35-.32-.35-.88-.66-1.7-.95-.82-.29-2.04-.61-3.67-.97-2.35-.5-4.08-1.26-5.2-2.28-1.12-1.02-1.68-2.38-1.68-4.06,0-1.1.33-2.15.99-3.13.66-.98,1.65-1.78,2.96-2.4,1.31-.62,2.88-.93,4.7-.93s3.49.3,4.85.89c1.35.59,2.38,1.31,3.09,2.13.7.83,1.06,1.56,1.06,2.2,0,.25-.09.46-.27.64s-.39.27-.64.27h-3.11c-.3,0-.54-.11-.7-.33-.19-.14-.5-.39-.93-.77-.43-.37-.91-.67-1.43-.89-.52-.22-1.16-.33-1.91-.33-1.02,0-1.81.22-2.36.66-.55.44-.83,1.02-.83,1.74,0,.5.13.91.39,1.24.26.33.79.64,1.6.93s2,.59,3.61.89c4.97.97,7.46,3.14,7.46,6.51,0,1.96-.85,3.55-2.55,4.77-1.7,1.22-4.07,1.82-7.11,1.82-2.1,0-3.85-.32-5.26-.95Z"/>
      <path class="cls-1" d="M261.25,209.03c-.19-.19-.29-.43-.29-.7v-26.98c0-.3.09-.55.27-.75.18-.19.42-.29.73-.29h3.36c.52,0,.94.26,1.24.79l8,14.84,8-14.84c.3-.52.72-.79,1.24-.79h3.32c.3,0,.55.1.75.29.19.19.29.44.29.75v26.98c0,.3-.1.55-.29.73-.19.18-.44.27-.75.27h-3.56c-.28,0-.51-.1-.7-.29-.19-.19-.29-.43-.29-.7v-17.82l-5.76,10.94c-.3.61-.76.91-1.37.91h-1.74c-.58,0-1.05-.3-1.41-.91l-5.76-10.94v17.82c0,.28-.09.51-.27.7-.18.19-.42.29-.73.29h-3.56c-.28,0-.51-.1-.7-.29Z"/>
      <path class="cls-1" d="M297.74,207.08c-1.81-1.77-2.77-4.28-2.88-7.54l-.04-1.04c0-3.45.9-6.17,2.71-8.16,1.81-1.99,4.32-2.98,7.52-2.98s5.82.99,7.61,2.98,2.67,4.64,2.67,7.96v.87c0,.28-.1.51-.29.7s-.44.29-.75.29h-13.76v.33c.06,1.55.48,2.83,1.26,3.83.79,1.01,1.87,1.51,3.25,1.51,1.58,0,2.86-.64,3.85-1.91.25-.3.44-.49.58-.56.14-.07.37-.1.7-.1h3.65c.25,0,.46.07.64.21.18.14.27.33.27.58,0,.66-.39,1.44-1.18,2.34-.79.9-1.91,1.68-3.38,2.34-1.47.66-3.16.99-5.1.99-3.09,0-5.55-.88-7.36-2.65ZM309.61,196.64v-.08c0-1.63-.41-2.94-1.22-3.92-.81-.98-1.93-1.47-3.34-1.47s-2.51.49-3.32,1.47c-.8.98-1.2,2.29-1.2,3.92v.08h9.08ZM302.65,184c0-.22.07-.4.21-.54l3.4-4.1c.25-.3.48-.51.68-.62.21-.11.49-.17.85-.17h4.19c.25,0,.44.08.58.23.14.15.21.35.21.6,0,.19-.07.36-.21.5l-5.18,4.23c-.25.19-.48.33-.68.41s-.46.12-.77.12h-2.61c-.44,0-.66-.22-.66-.66Z"/>
      <path class="cls-1" d="M322.96,207.06c-1.49-1.78-2.31-4.16-2.45-7.15l-.04-1.37.04-1.37c.11-2.93.92-5.3,2.42-7.11,1.51-1.81,3.65-2.71,6.44-2.71s4.77.91,6.34,2.74v-9.2c0-.3.1-.55.29-.73.19-.18.43-.27.7-.27h3.61c.3,0,.55.09.73.27.18.18.27.42.27.73v27.44c0,.28-.09.51-.27.7-.18.19-.42.29-.73.29h-3.36c-.28,0-.51-.1-.7-.29-.19-.19-.29-.43-.29-.7v-1.53c-1.52,1.96-3.72,2.94-6.59,2.94s-4.93-.89-6.42-2.67ZM334.46,203.74c.76-1.01,1.18-2.26,1.26-3.75.03-.33.04-.86.04-1.57s-.01-1.28-.04-1.62c-.06-1.38-.48-2.56-1.28-3.52-.8-.97-1.96-1.45-3.48-1.45-2.96,0-4.53,1.82-4.72,5.47l-.04,1.24.04,1.24c.19,3.65,1.77,5.47,4.72,5.47,1.58,0,2.74-.5,3.5-1.51Z"/>
      <path class="cls-1" d="M348.61,183.95c-.19-.19-.29-.43-.29-.7v-3.03c0-.3.1-.55.29-.75s.43-.29.7-.29h3.81c.3,0,.55.1.75.29.19.19.29.44.29.75v3.03c0,.28-.1.51-.31.7-.21.19-.45.29-.73.29h-3.81c-.28,0-.51-.1-.7-.29ZM348.78,209.03c-.19-.19-.29-.43-.29-.7v-19.56c0-.3.1-.55.29-.73.19-.18.43-.27.7-.27h3.52c.28,0,.51.1.7.29.19.19.29.43.29.7v19.56c0,.28-.1.51-.29.7s-.43.29-.7.29h-3.52c-.28,0-.51-.1-.7-.29Z"/>
      <path class="cls-1" d="M363.18,207.2c-1.81-1.68-2.77-4.02-2.88-7l-.04-1.66.04-1.66c.11-2.98,1.07-5.32,2.88-7,1.81-1.68,4.23-2.53,7.27-2.53,2.18,0,4.03.39,5.53,1.16,1.51.77,2.62,1.72,3.36,2.84.73,1.12,1.13,2.19,1.18,3.21.03.28-.06.51-.27.7-.21.19-.45.29-.73.29h-3.69c-.3,0-.53-.06-.66-.19-.14-.12-.28-.35-.41-.68-.41-1.05-.96-1.81-1.64-2.28-.68-.47-1.54-.7-2.59-.7-1.41,0-2.51.44-3.3,1.33-.79.88-1.21,2.24-1.26,4.06l-.04,1.53.04,1.37c.17,3.59,1.68,5.39,4.56,5.39,1.08,0,1.95-.23,2.61-.68.66-.46,1.2-1.22,1.62-2.3.11-.3.24-.52.39-.66.15-.14.38-.21.68-.21h3.69c.28,0,.52.1.73.29.21.19.3.43.27.7-.06.97-.44,2.01-1.16,3.13s-1.82,2.08-3.32,2.88-3.36,1.2-5.59,1.2c-3.04,0-5.46-.84-7.27-2.53Z"/>
      <path class="cls-1" d="M388.52,207.24c-1.77-1.66-2.72-3.95-2.86-6.88l-.04-1.82.04-1.82c.14-2.9,1.1-5.19,2.9-6.86,1.8-1.67,4.3-2.51,7.5-2.51s5.66.84,7.46,2.51c1.8,1.67,2.76,3.96,2.9,6.86.03.33.04.94.04,1.82s-.01,1.49-.04,1.82c-.14,2.93-1.09,5.22-2.86,6.88-1.77,1.66-4.27,2.49-7.5,2.49s-5.77-.83-7.54-2.49ZM399.44,204.18c.79-.91,1.21-2.25,1.26-4.02.03-.28.04-.81.04-1.62s-.01-1.34-.04-1.62c-.06-1.77-.48-3.11-1.28-4.04-.8-.93-1.92-1.39-3.36-1.39s-2.6.46-3.4,1.39c-.8.93-1.23,2.27-1.28,4.04l-.04,1.62.04,1.62c.05,1.77.48,3.11,1.28,4.02s1.93,1.37,3.4,1.37,2.59-.46,3.38-1.37Z"/>
      <path class="cls-1" d="M430.09,208.16l-8.87-26.61c-.03-.08-.04-.21-.04-.37,0-.25.08-.46.25-.62.17-.17.37-.25.62-.25h3.69c.36,0,.65.1.87.29.22.19.37.4.46.62l6.92,21.22,6.96-21.22c.06-.22.19-.43.41-.62.22-.19.51-.29.87-.29h3.73c.22,0,.42.08.6.25.18.17.27.37.27.62l-.08.37-8.83,26.61c-.28.77-.82,1.16-1.62,1.16h-4.6c-.83,0-1.37-.39-1.62-1.16Z"/>
      <path class="cls-1" d="M452.16,207.08c-1.81-1.77-2.77-4.28-2.88-7.54l-.04-1.04c0-3.45.9-6.17,2.71-8.16,1.81-1.99,4.32-2.98,7.52-2.98s5.82.99,7.61,2.98,2.67,4.64,2.67,7.96v.87c0,.28-.1.51-.29.7s-.44.29-.75.29h-13.76v.33c.06,1.55.48,2.83,1.26,3.83.79,1.01,1.87,1.51,3.25,1.51,1.58,0,2.86-.64,3.85-1.91.25-.3.44-.49.58-.56.14-.07.37-.1.7-.1h3.65c.25,0,.46.07.64.21.18.14.27.33.27.58,0,.66-.39,1.44-1.18,2.34-.79.9-1.91,1.68-3.38,2.34-1.47.66-3.16.99-5.1.99-3.09,0-5.55-.88-7.36-2.65ZM464.03,196.64v-.08c0-1.63-.41-2.94-1.22-3.92-.81-.98-1.93-1.47-3.34-1.47s-2.51.49-3.32,1.47c-.8.98-1.2,2.29-1.2,3.92v.08h9.08Z"/>
      <path class="cls-1" d="M479.82,207.35c-1.27-1.31-1.91-3.24-1.91-5.78v-9.37h-3.27c-.28,0-.51-.1-.7-.29-.19-.19-.29-.43-.29-.7v-2.44c0-.28.1-.51.29-.7.19-.19.43-.29.7-.29h3.27v-6.88c0-.3.1-.55.29-.73.19-.18.43-.27.7-.27h3.44c.3,0,.55.09.73.27.18.18.27.42.27.73v6.88h5.18c.28,0,.51.1.7.29.19.19.29.43.29.7v2.44c0,.28-.1.51-.29.7s-.43.29-.7.29h-5.18v8.91c0,1.19.21,2.09.62,2.69.41.61,1.09.91,2.03.91h2.9c.3,0,.55.09.73.27.18.18.27.42.27.73v2.61c0,.28-.09.51-.27.7-.18.19-.42.29-.73.29h-3.4c-2.51,0-4.41-.66-5.68-1.97Z"/>
      <path class="cls-1" d="M497.2,207.08c-1.81-1.77-2.77-4.28-2.88-7.54l-.04-1.04c0-3.45.9-6.17,2.71-8.16s4.32-2.98,7.52-2.98,5.82.99,7.6,2.98c1.78,1.99,2.67,4.64,2.67,7.96v.87c0,.28-.1.51-.29.7s-.44.29-.75.29h-13.76v.33c.05,1.55.48,2.83,1.26,3.83.79,1.01,1.87,1.51,3.25,1.51,1.58,0,2.86-.64,3.85-1.91.25-.3.44-.49.58-.56.14-.07.37-.1.7-.1h3.65c.25,0,.46.07.64.21.18.14.27.33.27.58,0,.66-.39,1.44-1.18,2.34-.79.9-1.91,1.68-3.38,2.34-1.46.66-3.16.99-5.1.99-3.09,0-5.55-.88-7.36-2.65ZM509.08,196.64v-.08c0-1.63-.41-2.94-1.22-3.92-.82-.98-1.93-1.47-3.34-1.47s-2.51.49-3.32,1.47c-.8.98-1.2,2.29-1.2,3.92v.08h9.08Z"/>
      <path class="cls-1" d="M521.14,209.03c-.19-.19-.29-.43-.29-.7v-19.52c0-.3.1-.55.29-.75.19-.19.43-.29.7-.29h3.4c.3,0,.55.1.75.29.19.19.29.44.29.75v1.7c1.38-1.82,3.37-2.74,5.97-2.74h1.74c.3,0,.55.09.73.27.18.18.27.42.27.73v3.03c0,.28-.09.51-.27.7-.18.19-.42.29-.73.29h-3.27c-1.3,0-2.32.37-3.07,1.12-.75.75-1.12,1.77-1.12,3.07v11.36c0,.28-.1.51-.29.7-.19.19-.43.29-.7.29h-3.69c-.28,0-.51-.1-.7-.29Z"/>
      <path class="cls-1" d="M539.99,183.95c-.19-.19-.29-.43-.29-.7v-3.03c0-.3.1-.55.29-.75s.43-.29.7-.29h3.81c.3,0,.55.1.75.29.19.19.29.44.29.75v3.03c0,.28-.1.51-.31.7-.21.19-.45.29-.73.29h-3.81c-.28,0-.51-.1-.7-.29ZM540.16,209.03c-.19-.19-.29-.43-.29-.7v-19.56c0-.3.1-.55.29-.73.19-.18.43-.27.7-.27h3.52c.28,0,.51.1.7.29.19.19.29.43.29.7v19.56c0,.28-.1.51-.29.7s-.43.29-.7.29h-3.52c-.28,0-.51-.1-.7-.29Z"/>
      <path class="cls-1" d="M552.8,209.03c-.19-.19-.29-.43-.29-.7v-19.56c0-.3.1-.55.29-.73.19-.18.43-.27.7-.27h3.44c.3,0,.55.09.73.27.18.18.27.42.27.73v1.7c1.68-2.07,3.99-3.11,6.92-3.11,2.54,0,4.56.83,6.05,2.49,1.49,1.66,2.24,3.94,2.24,6.84v11.65c0,.28-.09.51-.27.7-.18.19-.42.29-.73.29h-3.73c-.28,0-.51-.1-.7-.29-.19-.19-.29-.43-.29-.7v-11.4c0-1.6-.39-2.85-1.18-3.75-.79-.9-1.91-1.35-3.38-1.35s-2.54.46-3.4,1.37c-.86.91-1.28,2.15-1.28,3.73v11.4c0,.28-.09.51-.27.7-.18.19-.42.29-.73.29h-3.69c-.28,0-.51-.1-.7-.29Z"/>
      <path class="cls-1" d="M582.45,208.88c-1.17-.57-2.1-1.33-2.78-2.3-.68-.97-1.02-2.03-1.02-3.19,0-1.88.76-3.4,2.28-4.56,1.52-1.16,3.61-1.95,6.26-2.36l5.68-.83v-.87c0-1.19-.3-2.09-.91-2.69-.61-.61-1.58-.91-2.9-.91-.91,0-1.64.17-2.2.5s-1,.67-1.35,1.02c-.35.35-.57.57-.68.68-.11.33-.32.5-.62.5h-3.23c-.25,0-.46-.08-.64-.25-.18-.17-.27-.39-.27-.66.03-.69.37-1.47,1.02-2.34.65-.87,1.65-1.63,3-2.28,1.35-.65,3.03-.97,5.01-.97,3.26,0,5.64.73,7.13,2.2,1.49,1.46,2.24,3.38,2.24,5.76v13.01c0,.28-.09.51-.27.7-.18.19-.42.29-.73.29h-3.44c-.28,0-.51-.1-.7-.29-.19-.19-.29-.43-.29-.7v-1.62c-.61.88-1.47,1.61-2.57,2.18-1.11.57-2.49.85-4.14.85-1.41,0-2.7-.28-3.88-.85ZM591.46,204.26c.97-.99,1.45-2.43,1.45-4.31v-.83l-4.14.66c-3.18.5-4.77,1.56-4.77,3.19,0,.88.37,1.57,1.1,2.05.73.48,1.61.73,2.63.73,1.52,0,2.76-.5,3.73-1.49Z"/>
      <path class="cls-1" d="M605.72,209.03c-.19-.19-.29-.43-.29-.7v-19.52c0-.3.1-.55.29-.75.19-.19.43-.29.7-.29h3.4c.3,0,.55.1.75.29.19.19.29.44.29.75v1.7c1.38-1.82,3.37-2.74,5.97-2.74h1.74c.3,0,.55.09.73.27.18.18.27.42.27.73v3.03c0,.28-.09.51-.27.7-.18.19-.42.29-.73.29h-3.27c-1.3,0-2.32.37-3.07,1.12-.75.75-1.12,1.77-1.12,3.07v11.36c0,.28-.1.51-.29.7-.19.19-.43.29-.7.29h-3.69c-.28,0-.51-.1-.7-.29Z"/>
      <path class="cls-1" d="M624.58,183.95c-.19-.19-.29-.43-.29-.7v-3.03c0-.3.1-.55.29-.75s.43-.29.7-.29h3.81c.3,0,.55.1.75.29.19.19.29.44.29.75v3.03c0,.28-.1.51-.31.7-.21.19-.45.29-.73.29h-3.81c-.28,0-.51-.1-.7-.29ZM624.74,209.03c-.19-.19-.29-.43-.29-.7v-19.56c0-.3.1-.55.29-.73.19-.18.43-.27.7-.27h3.52c.28,0,.51.1.7.29.19.19.29.43.29.7v19.56c0,.28-.1.51-.29.7s-.43.29-.7.29h-3.52c-.28,0-.51-.1-.7-.29Z"/>
      <path class="cls-1" d="M639.47,208.88c-1.18-.57-2.1-1.33-2.78-2.3-.68-.97-1.02-2.03-1.02-3.19,0-1.88.76-3.4,2.28-4.56,1.52-1.16,3.61-1.95,6.26-2.36l5.68-.83v-.87c0-1.19-.3-2.09-.91-2.69-.61-.61-1.58-.91-2.9-.91-.91,0-1.64.17-2.2.5-.55.33-1,.67-1.35,1.02-.35.35-.57.57-.68.68-.11.33-.32.5-.62.5h-3.23c-.25,0-.46-.08-.64-.25-.18-.17-.27-.39-.27-.66.03-.69.37-1.47,1.02-2.34.65-.87,1.65-1.63,3-2.28,1.35-.65,3.03-.97,5.02-.97,3.26,0,5.64.73,7.13,2.2,1.49,1.46,2.24,3.38,2.24,5.76v13.01c0,.28-.09.51-.27.7-.18.19-.42.29-.73.29h-3.44c-.28,0-.51-.1-.7-.29-.19-.19-.29-.43-.29-.7v-1.62c-.61.88-1.47,1.61-2.57,2.18s-2.49.85-4.14.85c-1.41,0-2.7-.28-3.87-.85ZM648.49,204.26c.97-.99,1.45-2.43,1.45-4.31v-.83l-4.14.66c-3.18.5-4.77,1.56-4.77,3.19,0,.88.37,1.57,1.1,2.05.73.48,1.61.73,2.63.73,1.52,0,2.76-.5,3.73-1.49Z"/>
      <path class="cls-1" d="M665.4,208.78c-1.41-.64-2.45-1.37-3.13-2.22-.68-.84-1.02-1.57-1.02-2.18,0-.28.09-.5.27-.66.18-.17.39-.25.64-.25h3.4c.22,0,.41.11.58.33.14.11.45.37.93.79.48.41,1.04.74,1.66.97.62.24,1.31.35,2.05.35,1.1,0,2-.21,2.69-.64.69-.43,1.04-1.04,1.04-1.84,0-.55-.16-1-.48-1.35-.32-.35-.88-.66-1.7-.95s-2.04-.61-3.67-.97c-2.35-.5-4.08-1.26-5.2-2.28-1.12-1.02-1.68-2.38-1.68-4.06,0-1.1.33-2.15.99-3.13.66-.98,1.65-1.78,2.96-2.4,1.31-.62,2.88-.93,4.7-.93s3.49.3,4.85.89c1.35.59,2.38,1.31,3.09,2.13.7.83,1.06,1.56,1.06,2.2,0,.25-.09.46-.27.64s-.39.27-.64.27h-3.11c-.3,0-.54-.11-.7-.33-.19-.14-.5-.39-.93-.77-.43-.37-.91-.67-1.43-.89-.53-.22-1.16-.33-1.91-.33-1.02,0-1.81.22-2.36.66-.55.44-.83,1.02-.83,1.74,0,.5.13.91.39,1.24.26.33.79.64,1.6.93.8.29,2,.59,3.61.89,4.97.97,7.46,3.14,7.46,6.51,0,1.96-.85,3.55-2.55,4.77-1.7,1.22-4.07,1.82-7.11,1.82-2.1,0-3.85-.32-5.26-.95Z"/>
    </g>
  </g>
</svg>