<?xml version="1.0" encoding="UTF-8"?>
<svg id="Layer_2" data-name="Layer 2" xmlns="http://www.w3.org/2000/svg" viewBox="0 0 566.93 263.88">
  <defs>
    <style>
      .cls-1 {
        fill: #73be44;
      }

      .cls-2 {
        fill: #1c93d1;
      }
    </style>
  </defs>
  <g id="Layer_1-2" data-name="Layer 1">
    <g>
      <g>
        <path class="cls-1" d="M59.67,262.26l-59.66.05v-13.84s28.29-36.99,28.29-36.99l-.33-.66-25.09.02-.17-17.71,56.45-.05v13.84s-27.96,36.99-27.96,36.99l.33.66,28.11-.03.02,17.71Z"/>
        <path class="cls-2" d="M255.82,236.99l-18.82.02.02,25.08-22.14.02-.06-69.18,54.18-.04-3.82,17.71-28.21.02v9.89s18.82-.02,18.82-.02v16.49Z"/>
        <path class="cls-2" d="M285.14,262.05l-23.35.02,17.87-69.19,34.2-.03,17.99,69.16-23.35.02-2.56-10.96-18.26.02-2.54,10.96ZM296.17,214.11l-4.52,19.37h10.18s-4.44-19.37-4.44-19.37h-1.22Z"/>
        <path class="cls-2" d="M399.06,261.95l-24.35.02-9.09-20.58h-4.76s.02,20.59.02,20.59l-22.14.02-.06-69.18,34.87-.03c15.86-.01,23.8,8.06,23.82,24.22,0,11.07-3.41,18.38-10.27,21.92l11.97,23.01ZM360.83,210.51v13.84s5.1,0,5.1,0c2.66,0,4.59-.28,5.81-.84s1.82-1.83,1.82-3.82v-4.54c0-1.99-.62-3.26-1.83-3.82-1.22-.55-3.16-.83-5.81-.82h-5.09Z"/>
        <path class="cls-2" d="M429.26,261.92l-23.13.02,4.14-69.18,28.89-.03,8.67,35.19h.77s8.6-35.21,8.6-35.21l28.89-.03,4.27,69.17-23.13.02-1.36-33.54h-.77s-8.38,33.55-8.38,33.55l-16.93.02-8.55-33.53h-.66s-1.3,33.54-1.3,33.54Z"/>
        <path class="cls-2" d="M520.22,261.84l-23.35.02,17.87-69.19,34.2-.03,17.99,69.16-23.35.02-2.56-10.96-18.26.02-2.54,10.96ZM531.25,213.9l-4.52,19.37h10.18s-4.44-19.37-4.44-19.37h-1.22Z"/>
        <path class="cls-1" d="M126.69,200.05c-4.73-5.79-13.25-8.68-25.58-8.67s-20.84,2.92-25.56,8.71c-4.72,5.8-7.07,15-7.06,27.62,0,6.27.51,11.55,1.51,15.83,1,4.28,2.72,8.01,5.16,11.17,2.44,3.17,5.8,5.49,10.08,6.96,4.28,1.47,9.59,2.21,15.94,2.2,6.35,0,11.66-.75,15.94-2.23,4.28-1.48,7.63-3.81,10.07-6.98,2.43-3.17,4.14-6.9,5.14-11.18.99-4.28,1.49-9.56,1.48-15.83-.01-12.62-2.38-21.82-7.11-27.61ZM109.08,238.63c0,3.42-2.77,6.2-6.19,6.21h-3.38c-3.42,0-6.2-2.77-6.21-6.19l-.02-22.03c0-3.42,2.77-6.2,6.19-6.21h.43c.24-.06.53-.1.9-.1l.08.1h1.97c3.42,0,6.2,2.77,6.21,6.19l.02,22.03Z"/>
        <path class="cls-1" d="M198.43,199.98c-4.73-5.79-13.25-8.68-25.58-8.67s-20.84,2.92-25.56,8.71c-4.72,5.8-7.07,15-7.06,27.62,0,6.27.51,11.55,1.51,15.83,1,4.28,2.72,8.01,5.16,11.17,2.44,3.17,5.8,5.49,10.08,6.96,4.28,1.47,9.59,2.21,15.94,2.2s11.66-.75,15.94-2.23c4.28-1.48,7.63-3.81,10.07-6.98,2.43-3.17,4.14-6.9,5.14-11.18.99-4.28,1.49-9.56,1.48-15.83-.01-12.62-2.38-21.82-7.11-27.61ZM180.81,238.57c0,3.42-2.77,6.2-6.19,6.21h-3.38c-3.42,0-6.2-2.77-6.21-6.19l-.02-22.03c0-3.42,2.77-6.2,6.19-6.21h.43c.24-.06.53-.1.9-.1l.08.1h1.97c3.42,0,6.2,2.77,6.21,6.19l.02,22.03Z"/>
      </g>
      <g>
        <path class="cls-1" d="M296.84,62.3h23.81c5.16,0,9.35,4.19,9.35,9.35v12.71c0,5.16-4.18,9.35-9.35,9.35h-37.78l-12.32,27.72c-2.32,5.21,1.5,11.07,7.19,11.07h61.6c4.53,0,8.21-3.68,8.21-8.21V14.54c0-15.79-21.65-20.23-27.86-5.71l-22.85,53.47Z"/>
        <path class="cls-2" d="M242.26,93.71h-23.81c-5.16,0-9.35-4.19-9.35-9.35v-12.71c0-5.16,4.18-9.35,9.35-9.35h37.78l12.32-27.72c2.32-5.21-1.5-11.07-7.19-11.07h-61.6c-4.53,0-8.21,3.68-8.21,8.21v109.75c0,15.79,21.65,20.23,27.86,5.71l22.85-53.47Z"/>
      </g>
    </g>
  </g>
</svg>