<?xml version="1.0" encoding="utf-8"?>
<!-- Generator: Adobe Illustrator 27.3.1, SVG Export Plug-In . SVG Version: 6.00 Build 0)  -->
<svg version="1.1" id="Layer_1" xmlns="http://www.w3.org/2000/svg" xmlns:xlink="http://www.w3.org/1999/xlink" x="0px" y="0px"
	 viewBox="0 0 187.85 199.46" style="enable-background:new 0 0 187.85 199.46;" xml:space="preserve">
<style type="text/css">
	.st0{fill:#FFFFFF;}
	.st1{fill:#E30613;}
</style>
<rect x="0" y="0" class="st0" width="187.85" height="199.46"/>
<g>
	<path d="M13.84,158.97h7.85v10.95c1.76-2.46,5.75-7.4,8.41-10.95h9.36l-9.91,11.05l10.25,15.92h-9.26l-6.46-10.82l-2.39,2.46v8.36
		h-7.85V158.97z"/>
	<path d="M49.78,175.75v10.19H42.1v-26.96h13.36c6.35,0,9.42,3.4,9.42,7.47c0,3.72-2.18,5.63-4.05,6.4c1.7,0.59,3.52,2.39,3.52,6.96
		v1.12c0,1.68,0.05,3.85,0.35,5.02h-7.53c-0.46-1.16-0.57-3.12-0.57-5.89v-0.7c0-2.33-0.56-3.6-4.04-3.6H49.78z M49.78,170.24h3.66
		c2.63,0,3.59-1.09,3.59-2.91c0-1.8-1.14-2.85-3.55-2.85h-3.69V170.24z"/>
	<path d="M76.76,158.97v16.58c0,3.86,1.9,5.19,4.3,5.19c2.59,0,4.1-1.58,4.1-5.19v-16.58h7.94v15.78c0,8.96-5.3,11.68-12.17,11.68
		c-7.12,0-12.07-2.88-12.07-11.65v-15.82H76.76z"/>
	<path d="M105.88,158.97v16.58c0,3.86,1.9,5.19,4.3,5.19c2.59,0,4.1-1.58,4.1-5.19v-16.58h7.94v15.78c0,8.96-5.3,11.68-12.17,11.68
		c-7.12,0-12.07-2.88-12.07-11.65v-15.82H105.88z"/>
	<path d="M133.29,177.77c0.45,2.35,2.09,3.34,4.65,3.34c2.39,0,3.49-0.84,3.49-2.4c0-1.77-1.2-2.44-5.46-3.46
		c-7.96-1.93-9.54-4.83-9.54-8.46c0-4.53,3.33-8.32,10.83-8.32c7.8,0,10.99,3.96,11.37,8.21H141c-0.21-1.45-0.95-2.92-3.75-2.92
		c-1.81,0-2.92,0.68-2.92,2.14c0,1.46,0.99,2.03,5.15,3.05c8.31,2.07,9.96,5.07,9.96,8.9c0,5.06-3.91,8.58-11.82,8.58
		c-7.46,0-11.41-3.48-12-8.67H133.29z"/>
	<path d="M172.98,175.03H160.7v5.06h13.71l-0.88,5.86h-20.43v-26.96h20.41v5.86h-12.8v4.34h12.28V175.03z"/>
</g>
<g>
	<rect x="13.8" y="12.88" class="st0" width="160.25" height="131.43"/>
	<g>
		<g>
			<g>
				<polygon class="st1" points="13.8,12.88 13.8,144.31 71.77,144.31 13.8,12.88 				"/>
				<polygon class="st1" points="174.05,12.88 116.08,144.31 174.05,144.31 174.05,12.88 				"/>
				<polygon class="st1" points="60.01,12.88 93.93,93.38 127.85,12.88 				"/>
			</g>
		</g>
	</g>
</g>
</svg>
