<svg xmlns="http://www.w3.org/2000/svg" viewBox="0 0 136.99329 119.07914"><defs><style>.cls-1{fill:#fff;}.cls-2{fill:none;stroke:#fff;stroke-linecap:round;stroke-linejoin:round;stroke-width:5.042px;}.cls-3{fill:#007bc0;}.cls-4{fill:#aec9e7;}</style></defs><title>logo-azul</title><g id="Layer_2" data-name="Layer 2"><g id="Layer_1-2" data-name="Layer 1"><path class="cls-1" d="M130.7786,71.72376h-.737v-1.152h.693a1.89813,1.89813,0,0,1,.61.066.58869.58869,0,0,1,.258.201.55249.55249,0,0,1-.1.724,1.17124,1.17124,0,0,1-.724.161m.805.64294a1.07486,1.07486,0,0,0-.32-.20294,1.16223,1.16223,0,0,0,.782-.345,1.0259,1.0259,0,0,0,.295-.73.97129.97129,0,0,0-.179-.559.92532.92532,0,0,0-.472-.368,3.07577,3.07577,0,0,0-.96-.106h-1.298v3.814h.61v-1.62h.356a.77363.77363,0,0,1,.49.131,3.12826,3.12826,0,0,1,.635.888l.334.601h.743l-.46-.746a4.37841,4.37841,0,0,0-.556-.757"/><path class="cls-2" d="M130.7786,71.72376h-.737v-1.152h.693a1.89813,1.89813,0,0,1,.61.066.58869.58869,0,0,1,.258.201.55249.55249,0,0,1-.1.724A1.17124,1.17124,0,0,1,130.7786,71.72376Zm.805.64294a1.07486,1.07486,0,0,0-.32-.20294,1.16223,1.16223,0,0,0,.782-.345,1.0259,1.0259,0,0,0,.295-.73.97129.97129,0,0,0-.179-.559.92532.92532,0,0,0-.472-.368,3.07577,3.07577,0,0,0-.96-.106h-1.298v3.814h.61v-1.62h.356a.77363.77363,0,0,1,.49.131,3.12826,3.12826,0,0,1,.635.888l.334.601h.743l-.46-.746A4.37841,4.37841,0,0,0,131.58362,72.3667Z"/><path class="cls-1" d="M133.5073,73.37738a2.7611,2.7611,0,0,1-1.083,1.097,2.91394,2.91394,0,0,1-2.909,0,2.78071,2.78071,0,0,1-1.083-1.097,2.98008,2.98008,0,0,1-.386-1.467,3.02336,3.02336,0,0,1,.392-1.481,2.7545,2.7545,0,0,1,1.094-1.094,2.87676,2.87676,0,0,1,2.872,0,2.7232,2.7232,0,0,1,1.094,1.094,2.99733,2.99733,0,0,1,.009,2.948m.495-3.243a3.25011,3.25011,0,0,0-1.308-1.311,3.46354,3.46354,0,0,0-3.446,0,3.26447,3.26447,0,0,0-1.314,1.311,3.584,3.584,0,0,0-.006,3.538,3.28165,3.28165,0,0,0,1.298,1.311,3.48822,3.48822,0,0,0,3.487,0,3.26707,3.26707,0,0,0,1.297-1.311,3.591,3.591,0,0,0-.008-3.538"/><path class="cls-2" d="M133.5073,73.37738a2.7611,2.7611,0,0,1-1.083,1.097,2.91394,2.91394,0,0,1-2.909,0,2.78071,2.78071,0,0,1-1.083-1.097,2.98008,2.98008,0,0,1-.386-1.467,3.02336,3.02336,0,0,1,.392-1.481,2.7545,2.7545,0,0,1,1.094-1.094,2.87676,2.87676,0,0,1,2.872,0,2.7232,2.7232,0,0,1,1.094,1.094,2.99733,2.99733,0,0,1,.009,2.948Zm.495-3.243a3.25011,3.25011,0,0,0-1.308-1.311,3.46354,3.46354,0,0,0-3.446,0,3.26447,3.26447,0,0,0-1.314,1.311,3.584,3.584,0,0,0-.006,3.538,3.28165,3.28165,0,0,0,1.298,1.311,3.48822,3.48822,0,0,0,3.487,0,3.26707,3.26707,0,0,0,1.297-1.311,3.591,3.591,0,0,0-.008-3.538Z"/><path class="cls-1" d="M120.739,54.146H105.007a91.35979,91.35979,0,0,0-5.033-12.438c-12.976-25.934-28.562-35.817-35.523-39.187C57.491,5.89106,41.895,15.77405,28.92,41.708a91.33443,91.33443,0,0,0-5.031,12.438H2.521V74.421H19.794c-.218,2.585-.28,4.721-.28,6.284,8.112,4.014,23.966,12.68,44.937,12.68,20.963,0,36.812-8.666,44.928-12.68,0-1.563-.06-3.699-.279-6.284h10.716s.31,0,.564-.016c.184-.012.49-.07.49-.07a6.37414,6.37414,0,0,0,5.059-5.068,17.04079,17.04079,0,0,0,.44-4.854,25.34907,25.34907,0,0,0-.218-4.392c-.574-3.218-2.234-5.875-5.412-5.875"/><path class="cls-2" d="M120.739,54.146H105.007a91.35979,91.35979,0,0,0-5.033-12.438c-12.976-25.934-28.562-35.817-35.523-39.187C57.491,5.89106,41.895,15.77405,28.92,41.708a91.33443,91.33443,0,0,0-5.031,12.438H2.521V74.421H19.794c-.218,2.585-.28,4.721-.28,6.284,8.112,4.014,23.966,12.68,44.937,12.68,20.963,0,36.812-8.666,44.928-12.68,0-1.563-.06-3.699-.279-6.284h10.716s.31,0,.564-.016c.184-.012.49-.07.49-.07a6.37414,6.37414,0,0,0,5.059-5.068,17.04079,17.04079,0,0,0,.44-4.854,25.34907,25.34907,0,0,0-.218-4.392C125.577,56.803,123.917,54.146,120.739,54.146Z"/><path class="cls-3" d="M130.04181,71.72321h.737a1.1646,1.1646,0,0,0,.724-.16095.55121.55121,0,0,0,.1-.723.57456.57456,0,0,0-.258-.201,1.87142,1.87142,0,0,0-.611-.066h-.692Zm-.61,2.147v-3.814h1.297a3.06719,3.06719,0,0,1,.96.106.91861.91861,0,0,1,.473.368.96929.96929,0,0,1,.179.559,1.02779,1.02779,0,0,1-.295.729,1.1619,1.1619,0,0,1-.782.345,1.09535,1.09535,0,0,1,.32.203,4.4181,4.4181,0,0,1,.556.757l.46.747h-.744l-.334-.602a3.08683,3.08683,0,0,0-.634-.887.76718.76718,0,0,0-.49-.132h-.356v1.621Zm1.539-4.919a2.96288,2.96288,0,0,0-1.439.384,2.76818,2.76818,0,0,0-1.094,1.094,3.03447,3.03447,0,0,0-.392,1.481,2.9808,2.9808,0,0,0,.387,1.467,2.76724,2.76724,0,0,0,1.083,1.097,2.912,2.912,0,0,0,2.908,0,2.76074,2.76074,0,0,0,1.083-1.097,2.99392,2.99392,0,0,0-.008-2.948,2.73037,2.73037,0,0,0-1.094-1.094,2.95858,2.95858,0,0,0-1.434-.384m0-.587a3.55962,3.55962,0,0,1,1.723.459,3.23773,3.23773,0,0,1,1.308,1.311,3.58742,3.58742,0,0,1,.009,3.538,3.26615,3.26615,0,0,1-1.297,1.311,3.48971,3.48971,0,0,1-3.488,0,3.28545,3.28545,0,0,1-1.297-1.311,3.58074,3.58074,0,0,1,.005-3.538,3.26447,3.26447,0,0,1,1.314-1.311,3.54532,3.54532,0,0,1,1.723-.459"/><path class="cls-3" d="M64.45111,93.38523c-20.971,0-36.825-8.667-44.937-12.68a90.80491,90.80491,0,0,1,9.406-38.997c12.975-25.935,28.57-35.818,35.531-39.187,6.961,3.369,22.547,13.252,35.523,39.187a90.73776,90.73776,0,0,1,9.405,38.997c-8.116,4.013-23.965,12.68-44.928,12.68"/><path class="cls-4" d="M73.833,18.53864a1.3139,1.3139,0,0,0-1.532.165,1.35356,1.35356,0,0,0-.352,1.521l.461,1.139a8.29468,8.29468,0,0,1,.582,3.025,8.03161,8.03161,0,0,1-6.621,7.921v-8.125a1.33358,1.33358,0,1,0-2.667,0v8.125a8.079,8.079,0,0,1-6.036-10.946l.461-1.139a1.36656,1.36656,0,0,0-.356-1.521,1.31913,1.31913,0,0,0-1.535-.165l-15.874,9.001c-1.516,2.106-2.947,4.294-4.289,6.527,4.915-2.787,14.673-8.321,17.507-9.934-.004.08295-.025.174-.025.256a11.58743,11.58743,0,0,0,10.147,11.529v12.312c-.748-.578-1.448-1.108-2.083-1.582-3.136-2.347-4.515-3.452-4.563-4.94a.95.95,0,0,1,.433-.94495,3.0503,3.0503,0,0,1,2.166-.23706,1.30654,1.30654,0,0,0,1.544.218,1.345,1.345,0,0,0,.546-1.824c-.683-1.306-3.028-1.375-4.394-1.001a3.74638,3.74638,0,0,0-2.959,3.87805c.085,2.852,2.288,4.504,5.631,7.015.869.65,1.852,1.393,2.931,2.248-5.805,5.008-4.059,12.079-2.32,15.112a1.32929,1.32929,0,0,0,1.822.491,1.36675,1.36675,0,0,0,.498-1.84c-.154-.26-3.339-6.063.748-10.738v9.201a1.33355,1.33355,0,1,0,2.667,0v-9.261c4.18,4.687.954,10.538.808,10.798a1.36061,1.36061,0,0,0,.49,1.84,1.32949,1.32949,0,0,0,1.822-.491c1.738-3.033,3.473-10.104-2.312-15.112,1.076-.855,2.054-1.598,2.919-2.248,3.339-2.511,5.554-4.163,5.635-7.024a3.74363,3.74363,0,0,0-2.955-3.869c-1.366-.374-3.711-.305-4.394,1.001a1.34059,1.34059,0,0,0,.533,1.824,1.3272,1.3272,0,0,0,1.557-.218,3.05171,3.05171,0,0,1,2.166.23706.96275.96275,0,0,1,.429.94495c-.044,1.488-1.427,2.593-4.56,4.94-.647.483-1.366,1.022-2.138,1.617v-12.347a11.58073,11.58073,0,0,0,10.146-11.529c0-.082-.016-.173-.016-.256,2.619,1.488,11.164,6.338,16.318,9.265-1.407-2.282-2.89-4.501-4.454-6.621Z"/><path class="cls-1" d="M105.32108,78.37842c-7.749,3.883-22.187,11.112-40.87,11.112-18.691,0-33.126-7.229-40.882-11.112l-.146-.077.004-.169a87.68029,87.68029,0,0,1,8.945-34.676c11.444-22.893,24.929-32.683,31.954-36.483l.125-.069.121.069c7.022,3.8,20.506,13.598,31.962,36.501a87.82509,87.82509,0,0,1,8.941,34.658v.169Zm-7.247-35.686c-11.739-23.459-25.636-33.476-32.871-37.35394,0,0-.57-.303-.752-.4-.238.127-.756.4-.756.4-7.239,3.878-21.129,13.887-32.863,37.336a89.43327,89.43327,0,0,0-9.135,35.636l-.037,1.05c.291.154.938.465.938.465,7.951,3.988,22.754,11.40594,41.853,11.40594,19.091,0,33.906-7.418,41.856-11.40594,0,0,.708-.351.93-.465-.012-.256-.044-1.05-.044-1.05a89.20183,89.20183,0,0,0-9.119-35.618"/><path class="cls-3" d="M125.43113,60.15039a5.82,5.82,0,0,0-5.344-5.194h-.012c-.085-.014-.173-.027-.259-.035v-.036H3.25312v18.798h116.563v-.068c2.867-.435,4.77-2.031,5.409-4.54a16.45079,16.45079,0,0,0,.412-4.66,24.94535,24.94535,0,0,0-.206-4.265"/><path class="cls-3" d="M3.98059,55.62311v17.321l115.731-.061c2.579-.39,4.24-1.772,4.806-3.994a15.861,15.861,0,0,0,.392-4.476,24.09243,24.09243,0,0,0-.194-4.123,5.10471,5.10471,0,0,0-4.745-4.606l-.696-.061Zm-1.46,18.798v-20.275h118.218c3.178,0,4.838,2.657,5.412,5.875a25.24114,25.24114,0,0,1,.218,4.392,17.00372,17.00372,0,0,1-.44,4.854,6.37417,6.37417,0,0,1-5.058,5.068s-.306.058-.49.07c-.254.016-.564.016-.564.016Z"/><path class="cls-1" d="M17.04309,62.78638a2.95572,2.95572,0,0,0,1.52-.206,1.23785,1.23785,0,0,0,.568-1.127,1.27071,1.27071,0,0,0-.841-1.287,5.27779,5.27779,0,0,0-1.361-.091H9.3021v2.711Zm.498,5.809a3.578,3.578,0,0,0,1.453-.136,1.23856,1.23856,0,0,0,.682-1.242,1.27311,1.27311,0,0,0-.818-1.331,4.95118,4.95118,0,0,0-1.431-.094H9.3021v2.803Zm-12.734-11.919h13.667a7.13865,7.13865,0,0,1,3.585.59906c1.136.64294,1.637,1.675,1.637,3.421a3.45258,3.45258,0,0,1-.977,2.825,3.82377,3.82377,0,0,1-1.999.712,4.45238,4.45238,0,0,1,2.589.735,3.41682,3.41682,0,0,1,.999,2.823c0,1.859-.612,3.122-1.84,3.721a7.88521,7.88521,0,0,1-3.359.482H4.8071Z"/><rect class="cls-1" x="26.83771" y="56.67579" width="4.60699" height="15.31799"/><path class="cls-1" d="M39.74228,60.60364c-.885.39-1.136,1.172-1.136,3.63,0,3.971.251,4.178,5.019,4.178,3.519,0,4.451-.07,5.13-.32,1.022-.415,1.272-1.172,1.272-3.952,0-2.25-.181-3.029-.84-3.422-.658-.39-1.431-.459-4.994-.459-2.839,0-3.792.069-4.451.345m10.761-3.88c2.386.39,3.521,1.492,3.928,3.81006a23.49585,23.49585,0,0,1,.183,3.928,14.51533,14.51533,0,0,1-.365,4.225c-.498,1.976-2.087,3.124-4.584,3.329-1.158.092-2.975.14-5.542.14-5.243,0-6.538-.117-7.83-.735a4.2001,4.2001,0,0,1-2.182-3.424,25.7572,25.7572,0,0,1-.159-3.627c0-3.076.07-3.788.502-4.938.567-1.584,2.043-2.502,4.358-2.73a38.90577,38.90577,0,0,1,5.016-.184,49.46261,49.46261,0,0,1,6.675.206"/><polygon class="cls-1" points="59.993 68.481 71.436 60.145 60.288 60.145 60.288 56.676 78.177 56.676 78.177 60.192 66.598 68.525 78.358 68.525 78.358 71.994 59.993 71.994 59.993 68.481"/><path class="cls-1" d="M85.97049,60.60364c-.885.39-1.136,1.172-1.136,3.63,0,3.971.251,4.178,5.019,4.178,3.518,0,4.451-.07,5.13-.32,1.021-.415,1.272-1.172,1.272-3.952,0-2.25-.181-3.029-.841-3.422-.657-.39-1.43-.459-4.993-.459-2.839,0-3.791.069-4.451.345m10.761-3.88c2.385.39,3.521,1.492,3.928,3.81006a23.49586,23.49586,0,0,1,.183,3.928,14.51533,14.51533,0,0,1-.365,4.225c-.498,1.976-2.087,3.124-4.584,3.329-1.158.092-2.976.14-5.542.14-5.244,0-6.538-.117-7.83-.735a4.2001,4.2001,0,0,1-2.182-3.424,25.807,25.807,0,0,1-.158-3.627c0-3.076.069-3.788.501-4.938.567-1.584,2.043-2.502,4.358-2.73a38.91465,38.91465,0,0,1,5.016-.184,49.45238,49.45238,0,0,1,6.675.206"/><path class="cls-1" d="M108.8646,60.60364c-.885.39-1.135,1.172-1.135,3.63,0,3.971.25,4.178,5.018,4.178,3.518,0,4.451-.07,5.13-.32,1.022-.415,1.272-1.172,1.272-3.952,0-2.25-.181-3.029-.841-3.422-.657-.39-1.43-.459-4.993-.459-2.84,0-3.792.069-4.451.345m10.761-3.88c2.386.39,3.521,1.492,3.928,3.81006a23.49586,23.49586,0,0,1,.183,3.928,14.51533,14.51533,0,0,1-.365,4.225c-.498,1.976-2.087,3.124-4.584,3.329-1.158.092-2.975.14-5.541.14-5.245,0-6.539-.117-7.834-.735a4.19513,4.19513,0,0,1-2.176-3.424,25.19012,25.19012,0,0,1-.161-3.627c0-3.076.069-3.788.501-4.938.567-1.584,2.043-2.502,4.358-2.73a38.90577,38.90577,0,0,1,5.016-.184,49.46261,49.46261,0,0,1,6.675.206"/><polygon class="cls-3" points="11.864 113.12 11.864 115.301 7.609 115.301 7.609 116.586 12.233 116.586 12.233 118.825 4.919 118.825 4.919 109.704 12.169 109.704 12.169 111.943 7.609 111.943 7.609 113.12 11.864 113.12"/><path class="cls-3" d="M21.107,112.18412a6.163,6.163,0,0,0-2.468-.496c-.591,0-1.107.172-1.107.649,0,.49.522.63,1.336.801,2.321.49,3.683,1.196,3.683,3.002,0,2.182-1.832,2.939-4.103,2.939a6.25267,6.25267,0,0,1-3.873-1.177l1.215-1.813a4.78869,4.78869,0,0,0,2.531.751c.903,0,1.514-.108,1.514-.7,0-.477-.573-.636-1.489-.82-2.435-.509-3.529-1.508-3.529-2.983,0-1.59,1.068-2.888,3.695-2.888a7.19485,7.19485,0,0,1,3.81.923Z"/><polygon class="cls-3" points="33.295 109.704 33.295 111.943 30.312 111.943 30.312 118.824 27.622 118.824 27.622 111.943 24.639 111.943 24.639 109.704 33.295 109.704"/><path class="cls-3" d="M37.80631,115.30124h1.78l-.89-2.296Zm1.265-8.218h2.881l-1.997,1.972h-2.48Zm-2.633,11.741h-2.837l3.734-9.12h2.722l3.733,9.12h-2.836l-.573-1.476h-3.371Z"/><path class="cls-3" d="M56.16452,116.83982a4.20794,4.20794,0,0,0,2.62-.801l1.304,1.73a5.41562,5.41562,0,0,1-3.924,1.31c-3.409,0-4.999-2.15-4.999-4.815s1.59-4.814,4.999-4.814a5.41562,5.41562,0,0,1,3.924,1.31l-1.304,1.73a4.201,4.201,0,0,0-2.62-.802,2.59465,2.59465,0,0,0,0,5.152"/><path class="cls-3" d="M64.6435,114.2641a2.30011,2.30011,0,1,0,2.284-2.576,2.27553,2.27553,0,0,0-2.284,2.576m7.283,0c0,2.665-1.59,4.814-4.999,4.814s-4.999-2.149-4.999-4.814,1.59-4.815,4.999-4.815,4.999,2.15,4.999,4.815"/><polygon class="cls-3" points="74.523 109.704 77.671 109.704 80.692 114.837 80.692 109.704 83.383 109.704 83.383 118.824 80.234 118.824 77.213 113.692 77.213 118.824 74.523 118.824 74.523 109.704"/><polygon class="cls-3" points="94.509 109.704 94.509 111.943 91.526 111.943 91.526 118.824 88.836 118.824 88.836 111.943 85.853 111.943 85.853 109.704 94.509 109.704"/><rect class="cls-3" x="96.9787" y="109.7038" width="2.69101" height="9.12"/><path class="cls-3" d="M111.28431,110.63233l-1.278,1.705a5.50729,5.50729,0,0,0-2.742-.649,2.59479,2.59479,0,0,0,0,5.152,3.33986,3.33986,0,0,0,1.463-.274v-1.291h-1.59v-1.991h3.982v4.72a6.0995,6.0995,0,0,1-3.855,1.074c-3.409,0-4.999-2.149-4.999-4.814s1.59-4.815,4.999-4.815a6.38423,6.38423,0,0,1,4.02,1.183"/><path class="cls-3" d="M116.46918,114.2641a2.30011,2.30011,0,1,0,2.284-2.576,2.27553,2.27553,0,0,0-2.284,2.576m7.283,0c0,2.665-1.59,4.814-4.999,4.814s-4.999-2.149-4.999-4.814,1.59-4.815,4.999-4.815,4.999,2.15,4.999,4.815"/></g></g></svg>